<mxfile host="app.diagrams.net" modified="2022-06-10T14:04:11.625Z" agent="5.0 (Windows NT 10.0; Win64; x64) AppleWebKit/537.36 (KHTML, like Gecko) Chrome/101.0.4951.67 Safari/537.36" etag="qJzf2TDYomhT4HvalIpn" version="18.2.0" type="github" pages="2">
  <diagram id="xJBX6AHvPTF4CHD5w1QT" name="Page-2">
    <mxGraphModel dx="1144" dy="520" grid="1" gridSize="10" guides="1" tooltips="1" connect="1" arrows="1" fold="1" page="1" pageScale="1" pageWidth="850" pageHeight="1100" background="#ffffff" math="0" shadow="1">
      <root>
        <mxCell id="0" />
        <mxCell id="1" parent="0" />
        <mxCell id="y-s5pEy6mv-cV1noOZ-G-1" value="" style="shape=partialRectangle;whiteSpace=wrap;html=1;bottom=0;right=0;fillColor=none;hachureGap=4;fontSize=10;fontColor=#000000;rotation=-90;" vertex="1" parent="1">
          <mxGeometry x="516.08" y="496.5" width="142.65" height="253.69" as="geometry" />
        </mxCell>
        <mxCell id="y-s5pEy6mv-cV1noOZ-G-2" value="" style="rounded=0;whiteSpace=wrap;html=1;hachureGap=4;fillColor=#dae8fc;strokeColor=none;" vertex="1" parent="1">
          <mxGeometry x="718" y="200" width="228" height="130" as="geometry" />
        </mxCell>
        <mxCell id="y-s5pEy6mv-cV1noOZ-G-3" value="Red Hat OSP 13" style="rounded=0;whiteSpace=wrap;html=1;hachureGap=4;fillColor=#f8cecc;strokeColor=none;fontSize=9;fontStyle=1" vertex="1" parent="1">
          <mxGeometry x="738" y="214" width="120" height="38" as="geometry" />
        </mxCell>
        <mxCell id="y-s5pEy6mv-cV1noOZ-G-4" value="RHCS Cluster" style="rounded=0;whiteSpace=wrap;html=1;hachureGap=4;fillColor=#f8cecc;strokeColor=none;fontSize=9;fontStyle=1" vertex="1" parent="1">
          <mxGeometry x="738" y="267" width="189" height="28" as="geometry" />
        </mxCell>
        <mxCell id="y-s5pEy6mv-cV1noOZ-G-5" value="ODP-d" style="rounded=0;whiteSpace=wrap;html=1;hachureGap=4;fillColor=#d5e8d4;strokeColor=none;fontSize=9;fontStyle=1" vertex="1" parent="1">
          <mxGeometry x="858" y="214" width="69" height="38" as="geometry" />
        </mxCell>
        <mxCell id="y-s5pEy6mv-cV1noOZ-G-6" value="DXB: SHD" style="rounded=0;whiteSpace=wrap;html=1;hachureGap=4;strokeColor=none;fillColor=none;fontColor=#000000;fontStyle=1;fontSize=14;" vertex="1" parent="1">
          <mxGeometry x="791" y="340" width="82" height="22" as="geometry" />
        </mxCell>
        <mxCell id="y-s5pEy6mv-cV1noOZ-G-7" value="" style="rounded=0;whiteSpace=wrap;html=1;hachureGap=4;fillColor=#dae8fc;strokeColor=none;" vertex="1" parent="1">
          <mxGeometry x="130" y="200" width="228" height="130" as="geometry" />
        </mxCell>
        <mxCell id="y-s5pEy6mv-cV1noOZ-G-8" value="Red Hat OSP 13" style="rounded=0;whiteSpace=wrap;html=1;hachureGap=4;fillColor=#f8cecc;strokeColor=none;fontSize=9;fontStyle=1" vertex="1" parent="1">
          <mxGeometry x="150" y="214" width="120" height="38" as="geometry" />
        </mxCell>
        <mxCell id="y-s5pEy6mv-cV1noOZ-G-9" value="RHCS Cluster" style="rounded=0;whiteSpace=wrap;html=1;hachureGap=4;fillColor=#f8cecc;strokeColor=none;fontSize=9;fontStyle=1" vertex="1" parent="1">
          <mxGeometry x="150" y="267" width="189" height="28" as="geometry" />
        </mxCell>
        <mxCell id="y-s5pEy6mv-cV1noOZ-G-10" value="ODP-d" style="rounded=0;whiteSpace=wrap;html=1;hachureGap=4;fillColor=#d5e8d4;strokeColor=none;fontSize=9;fontStyle=1" vertex="1" parent="1">
          <mxGeometry x="270" y="214" width="69" height="38" as="geometry" />
        </mxCell>
        <mxCell id="y-s5pEy6mv-cV1noOZ-G-11" value="DXB: DSO" style="rounded=0;whiteSpace=wrap;html=1;hachureGap=4;strokeColor=none;fillColor=none;fontColor=#000000;fontStyle=1;fontSize=14;" vertex="1" parent="1">
          <mxGeometry x="203" y="340" width="82" height="22" as="geometry" />
        </mxCell>
        <mxCell id="y-s5pEy6mv-cV1noOZ-G-12" value="" style="rounded=0;whiteSpace=wrap;html=1;hachureGap=4;fillColor=#dae8fc;strokeColor=none;" vertex="1" parent="1">
          <mxGeometry x="130" y="630" width="228" height="130" as="geometry" />
        </mxCell>
        <mxCell id="y-s5pEy6mv-cV1noOZ-G-13" value="Red Hat OSP 13" style="rounded=0;whiteSpace=wrap;html=1;hachureGap=4;fillColor=#f8cecc;strokeColor=none;fontSize=9;fontStyle=1" vertex="1" parent="1">
          <mxGeometry x="150" y="644" width="120" height="38" as="geometry" />
        </mxCell>
        <mxCell id="y-s5pEy6mv-cV1noOZ-G-14" value="RHCS Cluster" style="rounded=0;whiteSpace=wrap;html=1;hachureGap=4;fillColor=#f8cecc;strokeColor=none;fontSize=9;fontStyle=1" vertex="1" parent="1">
          <mxGeometry x="150" y="697" width="189" height="28" as="geometry" />
        </mxCell>
        <mxCell id="y-s5pEy6mv-cV1noOZ-G-15" value="ODP-d" style="rounded=0;whiteSpace=wrap;html=1;hachureGap=4;fillColor=#d5e8d4;strokeColor=none;fontSize=9;fontStyle=1" vertex="1" parent="1">
          <mxGeometry x="270" y="644" width="69" height="38" as="geometry" />
        </mxCell>
        <mxCell id="y-s5pEy6mv-cV1noOZ-G-16" value="NE: BXA" style="rounded=0;whiteSpace=wrap;html=1;hachureGap=4;strokeColor=none;fillColor=none;fontColor=#000000;fontStyle=1;fontSize=14;" vertex="1" parent="1">
          <mxGeometry x="203" y="770" width="82" height="22" as="geometry" />
        </mxCell>
        <mxCell id="y-s5pEy6mv-cV1noOZ-G-17" value="" style="rounded=0;whiteSpace=wrap;html=1;hachureGap=4;fillColor=#dae8fc;strokeColor=none;" vertex="1" parent="1">
          <mxGeometry x="718" y="630" width="228" height="130" as="geometry" />
        </mxCell>
        <mxCell id="y-s5pEy6mv-cV1noOZ-G-18" value="Red Hat OSP 13" style="rounded=0;whiteSpace=wrap;html=1;hachureGap=4;fillColor=#f8cecc;strokeColor=none;fontSize=9;fontStyle=1" vertex="1" parent="1">
          <mxGeometry x="738" y="644" width="120" height="38" as="geometry" />
        </mxCell>
        <mxCell id="y-s5pEy6mv-cV1noOZ-G-19" value="RHCS Cluster" style="rounded=0;whiteSpace=wrap;html=1;hachureGap=4;fillColor=#f8cecc;strokeColor=none;fontSize=9;fontStyle=1" vertex="1" parent="1">
          <mxGeometry x="738" y="697" width="189" height="28" as="geometry" />
        </mxCell>
        <mxCell id="y-s5pEy6mv-cV1noOZ-G-20" value="ODP-d" style="rounded=0;whiteSpace=wrap;html=1;hachureGap=4;fillColor=#d5e8d4;strokeColor=none;fontSize=9;fontStyle=1" vertex="1" parent="1">
          <mxGeometry x="858" y="644" width="69" height="38" as="geometry" />
        </mxCell>
        <mxCell id="y-s5pEy6mv-cV1noOZ-G-21" value="AUH: A2E" style="rounded=0;whiteSpace=wrap;html=1;hachureGap=4;strokeColor=none;fillColor=none;fontColor=#000000;fontStyle=1;fontSize=14;" vertex="1" parent="1">
          <mxGeometry x="791.5" y="770" width="82" height="22" as="geometry" />
        </mxCell>
        <mxCell id="y-s5pEy6mv-cV1noOZ-G-22" value="" style="rounded=0;whiteSpace=wrap;html=1;hachureGap=4;fillColor=#dae8fc;strokeColor=none;" vertex="1" parent="1">
          <mxGeometry x="490.5" y="420" width="228" height="130" as="geometry" />
        </mxCell>
        <mxCell id="y-s5pEy6mv-cV1noOZ-G-23" value="Red Hat OSP 13" style="rounded=0;whiteSpace=wrap;html=1;hachureGap=4;fillColor=#f8cecc;strokeColor=none;fontSize=9;fontStyle=1" vertex="1" parent="1">
          <mxGeometry x="510.5" y="434" width="120" height="38" as="geometry" />
        </mxCell>
        <mxCell id="y-s5pEy6mv-cV1noOZ-G-24" value="RHCS Cluster" style="rounded=0;whiteSpace=wrap;html=1;hachureGap=4;fillColor=#f8cecc;strokeColor=none;fontSize=9;fontStyle=1" vertex="1" parent="1">
          <mxGeometry x="510.5" y="487" width="189" height="28" as="geometry" />
        </mxCell>
        <mxCell id="y-s5pEy6mv-cV1noOZ-G-25" value="ODP-d" style="rounded=0;whiteSpace=wrap;html=1;hachureGap=4;fillColor=#d5e8d4;strokeColor=none;fontSize=9;fontStyle=1" vertex="1" parent="1">
          <mxGeometry x="630.5" y="434" width="69" height="38" as="geometry" />
        </mxCell>
        <mxCell id="y-s5pEy6mv-cV1noOZ-G-26" value="AUH: AUQ" style="rounded=0;whiteSpace=wrap;html=1;hachureGap=4;strokeColor=none;fillColor=none;fontColor=#000000;fontStyle=1;fontSize=14;" vertex="1" parent="1">
          <mxGeometry x="510.5" y="570" width="82" height="22" as="geometry" />
        </mxCell>
        <mxCell id="y-s5pEy6mv-cV1noOZ-G-27" value="" style="rounded=0;whiteSpace=wrap;html=1;hachureGap=4;fillColor=#ffff88;strokeColor=none;fontStyle=1" vertex="1" parent="1">
          <mxGeometry x="300" y="420" width="190.5" height="130" as="geometry" />
        </mxCell>
        <mxCell id="y-s5pEy6mv-cV1noOZ-G-28" value="Ansible Tower" style="rounded=0;whiteSpace=wrap;html=1;hachureGap=4;fillColor=#d5e8d4;strokeColor=none;fontSize=7;fontStyle=1" vertex="1" parent="1">
          <mxGeometry x="368.25" y="480" width="52" height="38" as="geometry" />
        </mxCell>
        <mxCell id="y-s5pEy6mv-cV1noOZ-G-29" value="IDM" style="rounded=0;whiteSpace=wrap;html=1;hachureGap=4;fillColor=#d5e8d4;strokeColor=none;fontSize=8;fontStyle=1" vertex="1" parent="1">
          <mxGeometry x="429.25" y="480" width="52" height="38" as="geometry" />
        </mxCell>
        <mxCell id="y-s5pEy6mv-cV1noOZ-G-30" value="CloudForms" style="rounded=0;whiteSpace=wrap;html=1;hachureGap=4;fillColor=#d5e8d4;strokeColor=none;fontSize=8;fontStyle=1" vertex="1" parent="1">
          <mxGeometry x="368.25" y="434" width="52" height="38" as="geometry" />
        </mxCell>
        <mxCell id="y-s5pEy6mv-cV1noOZ-G-31" value="Satellite" style="rounded=0;whiteSpace=wrap;html=1;hachureGap=4;fillColor=#d5e8d4;strokeColor=none;fontSize=8;fontStyle=1" vertex="1" parent="1">
          <mxGeometry x="429.25" y="434" width="52" height="38" as="geometry" />
        </mxCell>
        <mxCell id="y-s5pEy6mv-cV1noOZ-G-32" value="RHEV" style="rounded=0;whiteSpace=wrap;html=1;hachureGap=4;fillColor=#ffff88;strokeColor=none;fontSize=12;fontColor=#000000;fontStyle=1" vertex="1" parent="1">
          <mxGeometry x="400" y="522" width="52" height="28" as="geometry" />
        </mxCell>
        <mxCell id="y-s5pEy6mv-cV1noOZ-G-33" value="FMC Cloud" style="shape=rect;rounded=1;whiteSpace=wrap;html=1;shadow=0;strokeColor=none;fillColor=#B1DDF0;arcSize=30;fontSize=14;spacingLeft=42;fontStyle=1;fontColor=#FFFFFF;align=left;hachureGap=4;" vertex="1" parent="1">
          <mxGeometry x="476" y="100" width="170" height="40" as="geometry" />
        </mxCell>
        <mxCell id="y-s5pEy6mv-cV1noOZ-G-34" value="V1" style="shape=ellipse;perimeter=ellipsePerimeter;fontSize=22;fontStyle=1;shadow=0;strokeColor=#ffffff;fillColor=#10739E;strokeWidth=4;fontColor=#ffffff;align=center;hachureGap=4;" vertex="1" parent="1">
          <mxGeometry x="446" y="90" width="60" height="60" as="geometry" />
        </mxCell>
        <mxCell id="y-s5pEy6mv-cV1noOZ-G-35" value="NFVi" style="rounded=0;whiteSpace=wrap;html=1;hachureGap=4;strokeColor=none;fillColor=none;fontColor=#000000;fontStyle=1" vertex="1" parent="1">
          <mxGeometry x="564" y="522" width="82" height="22" as="geometry" />
        </mxCell>
        <mxCell id="y-s5pEy6mv-cV1noOZ-G-36" value="NFVi" style="rounded=0;whiteSpace=wrap;html=1;hachureGap=4;strokeColor=none;fillColor=none;fontColor=#000000;fontStyle=1" vertex="1" parent="1">
          <mxGeometry x="198" y="738" width="82" height="22" as="geometry" />
        </mxCell>
        <mxCell id="y-s5pEy6mv-cV1noOZ-G-37" value="NFVi" style="rounded=0;whiteSpace=wrap;html=1;hachureGap=4;strokeColor=none;fillColor=none;fontColor=#000000;fontStyle=1" vertex="1" parent="1">
          <mxGeometry x="791" y="738" width="82" height="22" as="geometry" />
        </mxCell>
        <mxCell id="y-s5pEy6mv-cV1noOZ-G-38" value="NFVi" style="rounded=0;whiteSpace=wrap;html=1;hachureGap=4;strokeColor=none;fillColor=none;fontColor=#000000;fontStyle=1" vertex="1" parent="1">
          <mxGeometry x="203" y="308" width="82" height="22" as="geometry" />
        </mxCell>
        <mxCell id="y-s5pEy6mv-cV1noOZ-G-39" value="NFVi" style="rounded=0;whiteSpace=wrap;html=1;hachureGap=4;strokeColor=none;fillColor=none;fontColor=#000000;fontStyle=1" vertex="1" parent="1">
          <mxGeometry x="798" y="308" width="82" height="22" as="geometry" />
        </mxCell>
        <mxCell id="y-s5pEy6mv-cV1noOZ-G-40" value="" style="shape=partialRectangle;whiteSpace=wrap;html=1;bottom=0;right=0;fillColor=none;hachureGap=4;fontSize=10;fontColor=#000000;fontStyle=1;labelBorderColor=none;spacing=9;" vertex="1" parent="1">
          <mxGeometry x="460" y="269" width="258" height="150" as="geometry" />
        </mxCell>
        <mxCell id="y-s5pEy6mv-cV1noOZ-G-41" value="" style="shape=partialRectangle;whiteSpace=wrap;html=1;bottom=0;right=0;fillColor=none;hachureGap=4;fontSize=10;fontColor=#000000;rotation=-180;" vertex="1" parent="1">
          <mxGeometry x="357.94" y="550.25" width="42.99" height="144.35" as="geometry" />
        </mxCell>
        <mxCell id="y-s5pEy6mv-cV1noOZ-G-42" value="" style="shape=partialRectangle;whiteSpace=wrap;html=1;bottom=0;right=0;fillColor=none;hachureGap=4;fontSize=12;fontColor=#000000;rotation=90;" vertex="1" parent="1">
          <mxGeometry x="304.35" y="322.18" width="151.19" height="40.33" as="geometry" />
        </mxCell>
        <mxCell id="WotVIGKIgf9Uy5q-JpZJ-1" value="Nagios" style="rounded=0;whiteSpace=wrap;html=1;hachureGap=4;fillColor=#d5e8d4;strokeColor=none;fontSize=8;fontStyle=1" vertex="1" parent="1">
          <mxGeometry x="308" y="433" width="52" height="38" as="geometry" />
        </mxCell>
        <mxCell id="WotVIGKIgf9Uy5q-JpZJ-2" value="Gluster" style="rounded=0;whiteSpace=wrap;html=1;hachureGap=4;fillColor=#d5e8d4;strokeColor=none;fontSize=8;fontStyle=1" vertex="1" parent="1">
          <mxGeometry x="307.94" y="480" width="52" height="38" as="geometry" />
        </mxCell>
      </root>
    </mxGraphModel>
  </diagram>
  <diagram id="hKi8PUrANMX4StjspBmW" name="Page-3">
    <mxGraphModel dx="2086" dy="780" grid="1" gridSize="10" guides="1" tooltips="1" connect="1" arrows="1" fold="1" page="1" pageScale="1" pageWidth="850" pageHeight="1100" math="0" shadow="0">
      <root>
        <mxCell id="0" />
        <mxCell id="1" parent="0" />
        <mxCell id="cZppA_3T4UFepgqig8Nf-1" value="" style="shape=partialRectangle;whiteSpace=wrap;html=1;bottom=0;right=0;fillColor=none;hachureGap=4;fontSize=10;fontColor=#000000;rotation=-90;" vertex="1" parent="1">
          <mxGeometry x="516.08" y="496.5" width="142.65" height="253.69" as="geometry" />
        </mxCell>
        <mxCell id="cZppA_3T4UFepgqig8Nf-2" value="" style="rounded=0;whiteSpace=wrap;html=1;hachureGap=4;fillColor=#dae8fc;strokeColor=none;" vertex="1" parent="1">
          <mxGeometry x="718" y="200" width="228" height="130" as="geometry" />
        </mxCell>
        <mxCell id="cZppA_3T4UFepgqig8Nf-3" value="Red Hat OSP 13" style="rounded=0;whiteSpace=wrap;html=1;hachureGap=4;fillColor=#f8cecc;strokeColor=none;fontSize=9;fontStyle=1" vertex="1" parent="1">
          <mxGeometry x="738" y="214" width="120" height="38" as="geometry" />
        </mxCell>
        <mxCell id="cZppA_3T4UFepgqig8Nf-4" value="RHCS Cluster" style="rounded=0;whiteSpace=wrap;html=1;hachureGap=4;fillColor=#f8cecc;strokeColor=none;fontSize=9;fontStyle=1" vertex="1" parent="1">
          <mxGeometry x="738" y="267" width="189" height="28" as="geometry" />
        </mxCell>
        <mxCell id="cZppA_3T4UFepgqig8Nf-5" value="ODP-d" style="rounded=0;whiteSpace=wrap;html=1;hachureGap=4;fillColor=#d5e8d4;strokeColor=none;fontSize=9;fontStyle=1" vertex="1" parent="1">
          <mxGeometry x="858" y="214" width="69" height="38" as="geometry" />
        </mxCell>
        <mxCell id="cZppA_3T4UFepgqig8Nf-6" value="DXB: SHD" style="rounded=0;whiteSpace=wrap;html=1;hachureGap=4;strokeColor=none;fillColor=none;fontColor=#000000;fontStyle=1;fontSize=14;" vertex="1" parent="1">
          <mxGeometry x="791" y="340" width="82" height="22" as="geometry" />
        </mxCell>
        <mxCell id="cZppA_3T4UFepgqig8Nf-7" value="" style="rounded=0;whiteSpace=wrap;html=1;hachureGap=4;fillColor=#dae8fc;strokeColor=none;" vertex="1" parent="1">
          <mxGeometry x="130" y="200" width="228" height="130" as="geometry" />
        </mxCell>
        <mxCell id="cZppA_3T4UFepgqig8Nf-8" value="Red Hat OSP 13" style="rounded=0;whiteSpace=wrap;html=1;hachureGap=4;fillColor=#f8cecc;strokeColor=none;fontSize=9;fontStyle=1" vertex="1" parent="1">
          <mxGeometry x="150" y="214" width="120" height="38" as="geometry" />
        </mxCell>
        <mxCell id="cZppA_3T4UFepgqig8Nf-9" value="RHCS Cluster" style="rounded=0;whiteSpace=wrap;html=1;hachureGap=4;fillColor=#f8cecc;strokeColor=none;fontSize=9;fontStyle=1" vertex="1" parent="1">
          <mxGeometry x="150" y="267" width="189" height="28" as="geometry" />
        </mxCell>
        <mxCell id="cZppA_3T4UFepgqig8Nf-10" value="ODP-d" style="rounded=0;whiteSpace=wrap;html=1;hachureGap=4;fillColor=#d5e8d4;strokeColor=none;fontSize=9;fontStyle=1" vertex="1" parent="1">
          <mxGeometry x="270" y="214" width="69" height="38" as="geometry" />
        </mxCell>
        <mxCell id="cZppA_3T4UFepgqig8Nf-11" value="DXB: DSO" style="rounded=0;whiteSpace=wrap;html=1;hachureGap=4;strokeColor=none;fillColor=none;fontColor=#000000;fontStyle=1;fontSize=14;" vertex="1" parent="1">
          <mxGeometry x="203" y="340" width="82" height="22" as="geometry" />
        </mxCell>
        <mxCell id="cZppA_3T4UFepgqig8Nf-12" value="" style="rounded=0;whiteSpace=wrap;html=1;hachureGap=4;fillColor=#dae8fc;strokeColor=none;" vertex="1" parent="1">
          <mxGeometry x="130" y="630" width="228" height="130" as="geometry" />
        </mxCell>
        <mxCell id="cZppA_3T4UFepgqig8Nf-13" value="Red Hat OSP 13" style="rounded=0;whiteSpace=wrap;html=1;hachureGap=4;fillColor=#f8cecc;strokeColor=none;fontSize=9;fontStyle=1" vertex="1" parent="1">
          <mxGeometry x="150" y="644" width="120" height="38" as="geometry" />
        </mxCell>
        <mxCell id="cZppA_3T4UFepgqig8Nf-14" value="RHCS Cluster" style="rounded=0;whiteSpace=wrap;html=1;hachureGap=4;fillColor=#f8cecc;strokeColor=none;fontSize=9;fontStyle=1" vertex="1" parent="1">
          <mxGeometry x="150" y="697" width="189" height="28" as="geometry" />
        </mxCell>
        <mxCell id="cZppA_3T4UFepgqig8Nf-15" value="ODP-d" style="rounded=0;whiteSpace=wrap;html=1;hachureGap=4;fillColor=#d5e8d4;strokeColor=none;fontSize=9;fontStyle=1" vertex="1" parent="1">
          <mxGeometry x="270" y="644" width="69" height="38" as="geometry" />
        </mxCell>
        <mxCell id="cZppA_3T4UFepgqig8Nf-16" value="NE: BXA" style="rounded=0;whiteSpace=wrap;html=1;hachureGap=4;strokeColor=none;fillColor=none;fontColor=#000000;fontStyle=1;fontSize=14;" vertex="1" parent="1">
          <mxGeometry x="203" y="770" width="82" height="22" as="geometry" />
        </mxCell>
        <mxCell id="cZppA_3T4UFepgqig8Nf-17" value="" style="rounded=0;whiteSpace=wrap;html=1;hachureGap=4;fillColor=#dae8fc;strokeColor=none;" vertex="1" parent="1">
          <mxGeometry x="718" y="630" width="228" height="130" as="geometry" />
        </mxCell>
        <mxCell id="cZppA_3T4UFepgqig8Nf-18" value="Red Hat OSP 13" style="rounded=0;whiteSpace=wrap;html=1;hachureGap=4;fillColor=#f8cecc;strokeColor=none;fontSize=9;fontStyle=1" vertex="1" parent="1">
          <mxGeometry x="738" y="644" width="120" height="38" as="geometry" />
        </mxCell>
        <mxCell id="cZppA_3T4UFepgqig8Nf-19" value="RHCS Cluster" style="rounded=0;whiteSpace=wrap;html=1;hachureGap=4;fillColor=#f8cecc;strokeColor=none;fontSize=9;fontStyle=1" vertex="1" parent="1">
          <mxGeometry x="738" y="697" width="189" height="28" as="geometry" />
        </mxCell>
        <mxCell id="cZppA_3T4UFepgqig8Nf-20" value="ODP-d" style="rounded=0;whiteSpace=wrap;html=1;hachureGap=4;fillColor=#d5e8d4;strokeColor=none;fontSize=9;fontStyle=1" vertex="1" parent="1">
          <mxGeometry x="858" y="644" width="69" height="38" as="geometry" />
        </mxCell>
        <mxCell id="cZppA_3T4UFepgqig8Nf-21" value="AUH: A2E" style="rounded=0;whiteSpace=wrap;html=1;hachureGap=4;strokeColor=none;fillColor=none;fontColor=#000000;fontStyle=1;fontSize=14;" vertex="1" parent="1">
          <mxGeometry x="791.5" y="770" width="82" height="22" as="geometry" />
        </mxCell>
        <mxCell id="cZppA_3T4UFepgqig8Nf-22" value="" style="rounded=0;whiteSpace=wrap;html=1;hachureGap=4;fillColor=#dae8fc;strokeColor=none;" vertex="1" parent="1">
          <mxGeometry x="490.5" y="420" width="228" height="130" as="geometry" />
        </mxCell>
        <mxCell id="cZppA_3T4UFepgqig8Nf-23" value="Red Hat OSP 13" style="rounded=0;whiteSpace=wrap;html=1;hachureGap=4;fillColor=#f8cecc;strokeColor=none;fontSize=9;fontStyle=1" vertex="1" parent="1">
          <mxGeometry x="510.5" y="434" width="120" height="38" as="geometry" />
        </mxCell>
        <mxCell id="cZppA_3T4UFepgqig8Nf-24" value="RHCS Cluster" style="rounded=0;whiteSpace=wrap;html=1;hachureGap=4;fillColor=#f8cecc;strokeColor=none;fontSize=9;fontStyle=1" vertex="1" parent="1">
          <mxGeometry x="510.5" y="487" width="189" height="28" as="geometry" />
        </mxCell>
        <mxCell id="cZppA_3T4UFepgqig8Nf-25" value="ODP-d" style="rounded=0;whiteSpace=wrap;html=1;hachureGap=4;fillColor=#d5e8d4;strokeColor=none;fontSize=9;fontStyle=1" vertex="1" parent="1">
          <mxGeometry x="630.5" y="434" width="69" height="38" as="geometry" />
        </mxCell>
        <mxCell id="cZppA_3T4UFepgqig8Nf-26" value="AUH: AUQ" style="rounded=0;whiteSpace=wrap;html=1;hachureGap=4;strokeColor=none;fillColor=none;fontColor=#000000;fontStyle=1;fontSize=14;" vertex="1" parent="1">
          <mxGeometry x="510.5" y="570" width="82" height="22" as="geometry" />
        </mxCell>
        <mxCell id="cZppA_3T4UFepgqig8Nf-27" value="" style="rounded=0;whiteSpace=wrap;html=1;hachureGap=4;fillColor=#ffff88;strokeColor=none;fontStyle=1" vertex="1" parent="1">
          <mxGeometry x="40" y="420" width="450.5" height="130" as="geometry" />
        </mxCell>
        <mxCell id="cZppA_3T4UFepgqig8Nf-28" value="Ansible Tower" style="rounded=0;whiteSpace=wrap;html=1;hachureGap=4;fillColor=#d5e8d4;strokeColor=none;fontSize=7;fontStyle=1" vertex="1" parent="1">
          <mxGeometry x="367.25" y="480" width="52" height="38" as="geometry" />
        </mxCell>
        <mxCell id="cZppA_3T4UFepgqig8Nf-29" value="IDM" style="rounded=0;whiteSpace=wrap;html=1;hachureGap=4;fillColor=#d5e8d4;strokeColor=none;fontSize=8;fontStyle=1" vertex="1" parent="1">
          <mxGeometry x="429.25" y="480" width="52" height="38" as="geometry" />
        </mxCell>
        <mxCell id="cZppA_3T4UFepgqig8Nf-30" value="CloudForms" style="rounded=0;whiteSpace=wrap;html=1;hachureGap=4;fillColor=#d5e8d4;strokeColor=none;fontSize=8;fontStyle=1" vertex="1" parent="1">
          <mxGeometry x="367.25" y="434" width="52" height="38" as="geometry" />
        </mxCell>
        <mxCell id="cZppA_3T4UFepgqig8Nf-31" value="Satellite" style="rounded=0;whiteSpace=wrap;html=1;hachureGap=4;fillColor=#d5e8d4;strokeColor=none;fontSize=8;fontStyle=1" vertex="1" parent="1">
          <mxGeometry x="429.25" y="434" width="52" height="38" as="geometry" />
        </mxCell>
        <mxCell id="cZppA_3T4UFepgqig8Nf-32" value="RHEV" style="rounded=0;whiteSpace=wrap;html=1;hachureGap=4;fillColor=#ffff88;strokeColor=none;fontSize=12;fontColor=#000000;fontStyle=1" vertex="1" parent="1">
          <mxGeometry x="339" y="522.25" width="52" height="28" as="geometry" />
        </mxCell>
        <mxCell id="cZppA_3T4UFepgqig8Nf-33" value="FMC Cloud" style="shape=rect;rounded=1;whiteSpace=wrap;html=1;shadow=0;strokeColor=none;fillColor=#B1DDF0;arcSize=30;fontSize=14;spacingLeft=42;fontStyle=1;fontColor=#FFFFFF;align=left;hachureGap=4;" vertex="1" parent="1">
          <mxGeometry x="476" y="100" width="170" height="40" as="geometry" />
        </mxCell>
        <mxCell id="cZppA_3T4UFepgqig8Nf-34" value="V2" style="shape=ellipse;perimeter=ellipsePerimeter;fontSize=22;fontStyle=1;shadow=0;strokeColor=#ffffff;fillColor=#10739E;strokeWidth=4;fontColor=#ffffff;align=center;hachureGap=4;" vertex="1" parent="1">
          <mxGeometry x="446" y="90" width="60" height="60" as="geometry" />
        </mxCell>
        <mxCell id="cZppA_3T4UFepgqig8Nf-35" value="NFVi" style="rounded=0;whiteSpace=wrap;html=1;hachureGap=4;strokeColor=none;fillColor=none;fontColor=#000000;fontStyle=1" vertex="1" parent="1">
          <mxGeometry x="564" y="522" width="82" height="22" as="geometry" />
        </mxCell>
        <mxCell id="cZppA_3T4UFepgqig8Nf-36" value="NFVi" style="rounded=0;whiteSpace=wrap;html=1;hachureGap=4;strokeColor=none;fillColor=none;fontColor=#000000;fontStyle=1" vertex="1" parent="1">
          <mxGeometry x="198" y="738" width="82" height="22" as="geometry" />
        </mxCell>
        <mxCell id="cZppA_3T4UFepgqig8Nf-37" value="NFVi" style="rounded=0;whiteSpace=wrap;html=1;hachureGap=4;strokeColor=none;fillColor=none;fontColor=#000000;fontStyle=1" vertex="1" parent="1">
          <mxGeometry x="791" y="738" width="82" height="22" as="geometry" />
        </mxCell>
        <mxCell id="cZppA_3T4UFepgqig8Nf-38" value="NFVi" style="rounded=0;whiteSpace=wrap;html=1;hachureGap=4;strokeColor=none;fillColor=none;fontColor=#000000;fontStyle=1" vertex="1" parent="1">
          <mxGeometry x="203" y="308" width="82" height="22" as="geometry" />
        </mxCell>
        <mxCell id="cZppA_3T4UFepgqig8Nf-39" value="NFVi" style="rounded=0;whiteSpace=wrap;html=1;hachureGap=4;strokeColor=none;fillColor=none;fontColor=#000000;fontStyle=1" vertex="1" parent="1">
          <mxGeometry x="798" y="308" width="82" height="22" as="geometry" />
        </mxCell>
        <mxCell id="cZppA_3T4UFepgqig8Nf-40" value="" style="shape=partialRectangle;whiteSpace=wrap;html=1;bottom=0;right=0;fillColor=none;hachureGap=4;fontSize=10;fontColor=#000000;fontStyle=1;labelBorderColor=none;spacing=9;" vertex="1" parent="1">
          <mxGeometry x="460" y="269" width="258" height="150" as="geometry" />
        </mxCell>
        <mxCell id="cZppA_3T4UFepgqig8Nf-41" value="" style="shape=partialRectangle;whiteSpace=wrap;html=1;bottom=0;right=0;fillColor=none;hachureGap=4;fontSize=10;fontColor=#000000;rotation=-180;" vertex="1" parent="1">
          <mxGeometry x="357.94" y="550.25" width="42.99" height="144.35" as="geometry" />
        </mxCell>
        <mxCell id="cZppA_3T4UFepgqig8Nf-42" value="" style="shape=partialRectangle;whiteSpace=wrap;html=1;bottom=0;right=0;fillColor=none;hachureGap=4;fontSize=12;fontColor=#000000;rotation=90;" vertex="1" parent="1">
          <mxGeometry x="304.35" y="322.18" width="151.19" height="40.33" as="geometry" />
        </mxCell>
        <mxCell id="aSZfccJn16BI8j0mZudG-1" value="Gitlab" style="rounded=0;whiteSpace=wrap;html=1;hachureGap=4;fillColor=#d5e8d4;strokeColor=none;fontSize=8;fontStyle=1" vertex="1" parent="1">
          <mxGeometry x="244" y="434" width="52" height="38" as="geometry" />
        </mxCell>
        <mxCell id="aSZfccJn16BI8j0mZudG-2" value="Zabbix" style="rounded=0;whiteSpace=wrap;html=1;hachureGap=4;fillColor=#d5e8d4;strokeColor=none;fontSize=8;fontStyle=1" vertex="1" parent="1">
          <mxGeometry x="305" y="434" width="52" height="38" as="geometry" />
        </mxCell>
        <mxCell id="aSZfccJn16BI8j0mZudG-3" value="HCI" style="rounded=0;whiteSpace=wrap;html=1;hachureGap=4;fillColor=#d5e8d4;strokeColor=none;fontSize=8;fontStyle=1" vertex="1" parent="1">
          <mxGeometry x="305" y="481" width="52" height="38" as="geometry" />
        </mxCell>
        <mxCell id="aSZfccJn16BI8j0mZudG-4" value="ELK" style="rounded=0;whiteSpace=wrap;html=1;hachureGap=4;fillColor=#d5e8d4;strokeColor=none;fontSize=8;fontStyle=1" vertex="1" parent="1">
          <mxGeometry x="244" y="482" width="52" height="38" as="geometry" />
        </mxCell>
        <mxCell id="3Fb0Vm6JVOBEAGxMpVpx-1" value="" style="rounded=0;whiteSpace=wrap;html=1;hachureGap=4;fillColor=#ffff88;strokeColor=none;fontStyle=1" vertex="1" parent="1">
          <mxGeometry x="586.5" y="200" width="132.5" height="130" as="geometry" />
        </mxCell>
        <mxCell id="3Fb0Vm6JVOBEAGxMpVpx-2" value="" style="rounded=0;whiteSpace=wrap;html=1;hachureGap=4;fillColor=#ffff88;strokeColor=none;fontStyle=1" vertex="1" parent="1">
          <mxGeometry x="585.5" y="630" width="132.5" height="130" as="geometry" />
        </mxCell>
        <mxCell id="3Fb0Vm6JVOBEAGxMpVpx-3" value="" style="rounded=0;whiteSpace=wrap;html=1;hachureGap=4;fillColor=#ffff88;strokeColor=none;fontStyle=1" vertex="1" parent="1">
          <mxGeometry x="-2.5" y="200" width="132.5" height="130" as="geometry" />
        </mxCell>
        <mxCell id="3Fb0Vm6JVOBEAGxMpVpx-4" value="" style="rounded=0;whiteSpace=wrap;html=1;hachureGap=4;fillColor=#ffff88;strokeColor=none;fontStyle=1" vertex="1" parent="1">
          <mxGeometry x="-2.5" y="630" width="132.5" height="130" as="geometry" />
        </mxCell>
        <mxCell id="3Fb0Vm6JVOBEAGxMpVpx-5" value="Zabbix" style="rounded=0;whiteSpace=wrap;html=1;hachureGap=4;fillColor=#d5e8d4;strokeColor=none;fontSize=8;fontStyle=1" vertex="1" parent="1">
          <mxGeometry x="594" y="214" width="52" height="38" as="geometry" />
        </mxCell>
        <mxCell id="Y4xNyaLrLDncxvHc4WWi-7" value="Bootstrab" style="rounded=0;whiteSpace=wrap;html=1;hachureGap=4;fillColor=#d5e8d4;strokeColor=none;fontSize=8;fontStyle=1" vertex="1" parent="1">
          <mxGeometry x="183" y="433" width="52" height="38" as="geometry" />
        </mxCell>
        <mxCell id="Y4xNyaLrLDncxvHc4WWi-8" value="DNS/NTP" style="rounded=0;whiteSpace=wrap;html=1;hachureGap=4;fillColor=#d5e8d4;strokeColor=none;fontSize=8;fontStyle=1" vertex="1" parent="1">
          <mxGeometry x="183" y="481" width="52" height="38" as="geometry" />
        </mxCell>
        <mxCell id="Y4xNyaLrLDncxvHc4WWi-9" value="Bacula" style="rounded=0;whiteSpace=wrap;html=1;hachureGap=4;fillColor=#d5e8d4;strokeColor=none;fontSize=8;fontStyle=1" vertex="1" parent="1">
          <mxGeometry x="123" y="433" width="52" height="38" as="geometry" />
        </mxCell>
        <mxCell id="Y4xNyaLrLDncxvHc4WWi-10" value="etc.." style="rounded=0;whiteSpace=wrap;html=1;hachureGap=4;fillColor=#d5e8d4;strokeColor=none;fontSize=8;fontStyle=1" vertex="1" parent="1">
          <mxGeometry x="123" y="480" width="52" height="38" as="geometry" />
        </mxCell>
        <mxCell id="Y4xNyaLrLDncxvHc4WWi-11" value="Bacula" style="rounded=0;whiteSpace=wrap;html=1;hachureGap=4;fillColor=#d5e8d4;strokeColor=none;fontSize=8;fontStyle=1" vertex="1" parent="1">
          <mxGeometry x="594" y="262" width="52" height="38" as="geometry" />
        </mxCell>
        <mxCell id="Y4xNyaLrLDncxvHc4WWi-12" value="RHEV" style="rounded=0;whiteSpace=wrap;html=1;hachureGap=4;fillColor=#ffff88;strokeColor=none;fontSize=12;fontColor=#000000;fontStyle=1" vertex="1" parent="1">
          <mxGeometry x="626.75" y="302" width="52" height="28" as="geometry" />
        </mxCell>
        <mxCell id="Y4xNyaLrLDncxvHc4WWi-14" value="Logstash" style="rounded=0;whiteSpace=wrap;html=1;hachureGap=4;fillColor=#d5e8d4;strokeColor=none;fontSize=8;fontStyle=1" vertex="1" parent="1">
          <mxGeometry x="656.73" y="214" width="52" height="38" as="geometry" />
        </mxCell>
        <mxCell id="Y4xNyaLrLDncxvHc4WWi-15" value="Bootstrab" style="rounded=0;whiteSpace=wrap;html=1;hachureGap=4;fillColor=#d5e8d4;strokeColor=none;fontSize=8;fontStyle=1" vertex="1" parent="1">
          <mxGeometry x="657.73" y="262" width="52" height="38" as="geometry" />
        </mxCell>
        <mxCell id="Y4xNyaLrLDncxvHc4WWi-16" value="Zabbix" style="rounded=0;whiteSpace=wrap;html=1;hachureGap=4;fillColor=#d5e8d4;strokeColor=none;fontSize=8;fontStyle=1" vertex="1" parent="1">
          <mxGeometry x="594.88" y="644" width="52" height="38" as="geometry" />
        </mxCell>
        <mxCell id="Y4xNyaLrLDncxvHc4WWi-17" value="Bacula" style="rounded=0;whiteSpace=wrap;html=1;hachureGap=4;fillColor=#d5e8d4;strokeColor=none;fontSize=8;fontStyle=1" vertex="1" parent="1">
          <mxGeometry x="594.88" y="692" width="52" height="38" as="geometry" />
        </mxCell>
        <mxCell id="Y4xNyaLrLDncxvHc4WWi-18" value="Logstash" style="rounded=0;whiteSpace=wrap;html=1;hachureGap=4;fillColor=#d5e8d4;strokeColor=none;fontSize=8;fontStyle=1" vertex="1" parent="1">
          <mxGeometry x="657.61" y="644" width="52" height="38" as="geometry" />
        </mxCell>
        <mxCell id="Y4xNyaLrLDncxvHc4WWi-19" value="Bootstrab" style="rounded=0;whiteSpace=wrap;html=1;hachureGap=4;fillColor=#d5e8d4;strokeColor=none;fontSize=8;fontStyle=1" vertex="1" parent="1">
          <mxGeometry x="658.61" y="692" width="52" height="38" as="geometry" />
        </mxCell>
        <mxCell id="Y4xNyaLrLDncxvHc4WWi-20" value="RHEV" style="rounded=0;whiteSpace=wrap;html=1;hachureGap=4;fillColor=#ffff88;strokeColor=none;fontSize=12;fontColor=#000000;fontStyle=1" vertex="1" parent="1">
          <mxGeometry x="626.75" y="735" width="52" height="28" as="geometry" />
        </mxCell>
        <mxCell id="Y4xNyaLrLDncxvHc4WWi-21" value="Zabbix" style="rounded=0;whiteSpace=wrap;html=1;hachureGap=4;fillColor=#d5e8d4;strokeColor=none;fontSize=8;fontStyle=1" vertex="1" parent="1">
          <mxGeometry x="7.269999999999982" y="207" width="52" height="38" as="geometry" />
        </mxCell>
        <mxCell id="Y4xNyaLrLDncxvHc4WWi-22" value="Bacula" style="rounded=0;whiteSpace=wrap;html=1;hachureGap=4;fillColor=#d5e8d4;strokeColor=none;fontSize=8;fontStyle=1" vertex="1" parent="1">
          <mxGeometry x="7.269999999999982" y="255" width="52" height="38" as="geometry" />
        </mxCell>
        <mxCell id="Y4xNyaLrLDncxvHc4WWi-23" value="RHEV" style="rounded=0;whiteSpace=wrap;html=1;hachureGap=4;fillColor=#ffff88;strokeColor=none;fontSize=12;fontColor=#000000;fontStyle=1" vertex="1" parent="1">
          <mxGeometry x="40.01999999999998" y="295" width="52" height="28" as="geometry" />
        </mxCell>
        <mxCell id="Y4xNyaLrLDncxvHc4WWi-24" value="Logstash" style="rounded=0;whiteSpace=wrap;html=1;hachureGap=4;fillColor=#d5e8d4;strokeColor=none;fontSize=8;fontStyle=1" vertex="1" parent="1">
          <mxGeometry x="70" y="207" width="52" height="38" as="geometry" />
        </mxCell>
        <mxCell id="Y4xNyaLrLDncxvHc4WWi-25" value="Bootstrab" style="rounded=0;whiteSpace=wrap;html=1;hachureGap=4;fillColor=#d5e8d4;strokeColor=none;fontSize=8;fontStyle=1" vertex="1" parent="1">
          <mxGeometry x="71" y="255" width="52" height="38" as="geometry" />
        </mxCell>
        <mxCell id="Y4xNyaLrLDncxvHc4WWi-26" value="Zabbix" style="rounded=0;whiteSpace=wrap;html=1;hachureGap=4;fillColor=#d5e8d4;strokeColor=none;fontSize=8;fontStyle=1" vertex="1" parent="1">
          <mxGeometry x="7.269999999999982" y="637" width="52" height="38" as="geometry" />
        </mxCell>
        <mxCell id="Y4xNyaLrLDncxvHc4WWi-27" value="Bacula" style="rounded=0;whiteSpace=wrap;html=1;hachureGap=4;fillColor=#d5e8d4;strokeColor=none;fontSize=8;fontStyle=1" vertex="1" parent="1">
          <mxGeometry x="7.269999999999982" y="685" width="52" height="38" as="geometry" />
        </mxCell>
        <mxCell id="Y4xNyaLrLDncxvHc4WWi-28" value="RHEV" style="rounded=0;whiteSpace=wrap;html=1;hachureGap=4;fillColor=#ffff88;strokeColor=none;fontSize=12;fontColor=#000000;fontStyle=1" vertex="1" parent="1">
          <mxGeometry x="40.01999999999998" y="725" width="52" height="28" as="geometry" />
        </mxCell>
        <mxCell id="Y4xNyaLrLDncxvHc4WWi-29" value="Logstash" style="rounded=0;whiteSpace=wrap;html=1;hachureGap=4;fillColor=#d5e8d4;strokeColor=none;fontSize=8;fontStyle=1" vertex="1" parent="1">
          <mxGeometry x="70" y="637" width="52" height="38" as="geometry" />
        </mxCell>
        <mxCell id="Y4xNyaLrLDncxvHc4WWi-30" value="Bootstrab" style="rounded=0;whiteSpace=wrap;html=1;hachureGap=4;fillColor=#d5e8d4;strokeColor=none;fontSize=8;fontStyle=1" vertex="1" parent="1">
          <mxGeometry x="71" y="685" width="52" height="38" as="geometry" />
        </mxCell>
        <mxCell id="Y4xNyaLrLDncxvHc4WWi-31" value="" style="verticalLabelPosition=bottom;verticalAlign=top;html=1;shape=mxgraph.basic.rect;fillColor2=none;strokeWidth=1;size=20;indent=5;labelBorderColor=none;hachureGap=4;fontSize=12;fillColor=#cdeb8b;rotation=90;strokeColor=#36393d;" vertex="1" parent="1">
          <mxGeometry x="39.370000000000005" y="444.5" width="86" height="60" as="geometry" />
        </mxCell>
        <mxCell id="Y4xNyaLrLDncxvHc4WWi-33" value="&lt;font style=&quot;font-size: 12px;&quot;&gt;Central Dashboard&lt;/font&gt;" style="rounded=0;whiteSpace=wrap;html=1;hachureGap=4;strokeColor=none;fillColor=none;fontColor=#000000;fontStyle=1;fontSize=12;rotation=90;" vertex="1" parent="1">
          <mxGeometry x="32.75" y="465" width="100" height="22" as="geometry" />
        </mxCell>
      </root>
    </mxGraphModel>
  </diagram>
</mxfile>
